<svg width="70" height="76" viewBox="0 0 70 76" fill="none" xmlns="http://www.w3.org/2000/svg">
<path d="M0 10C0 4.47715 4.47715 0 10 0H60C65.5229 0 70 4.47715 70 10V66C70 71.5229 65.5229 76 60 76H10C4.47715 76 0 71.5229 0 66V10Z" fill="#F9FDFF"/>
<g clip-path="url(#clip0_0_91)">
<g clip-path="url(#clip1_0_91)">
<path d="M20.7143 42.0001C20.7143 42.3156 20.9702 42.5715 21.2857 42.5715H48.7143C49.0299 42.5715 49.2857 42.3156 49.2857 42.0001V24.2858H20.7143V42.0001Z" fill="#E74040"/>
<path d="M50.4286 22H19.5714C19.2559 22 19 22.2559 19 22.5714C19 22.887 19.2559 23.1429 19.5714 23.1429H50.4286C50.7441 23.1429 51 22.887 51 22.5714C51 22.2559 50.7441 22 50.4286 22Z" fill="#E74040"/>
<path d="M39.5714 51.7142H35.5714V44.8571H36.1429C36.4584 44.8571 36.7143 44.6012 36.7143 44.2857V43.7142H33.2857V44.2857C33.2857 44.6012 33.5416 44.8571 33.8572 44.8571H34.4286V51.7142H30.4286C29.4819 51.7142 28.7143 52.4818 28.7143 53.4285V54H41.2857V53.4285C41.2857 52.4818 40.5182 51.7142 39.5714 51.7142Z" fill="#E74040"/>
</g>
</g>
<defs>
<clipPath id="clip0_0_91">
<rect width="32" height="32" fill="white" transform="translate(19 22)"/>
</clipPath>
<clipPath id="clip1_0_91">
<rect width="32" height="32" fill="white" transform="translate(19 22)"/>
</clipPath>
</defs>
</svg>
