<svg width="33" height="32" viewBox="0 0 33 32" fill="none" xmlns="http://www.w3.org/2000/svg">
<g clip-path="url(#clip0_0_103)">
<g clip-path="url(#clip1_0_103)">
<path d="M14.0949 12.4945C14.1325 12.4649 14.1717 12.4383 14.2107 12.4103C14.3098 12.3389 14.4132 12.2744 14.5208 12.2171C14.5631 12.194 14.604 12.171 14.6474 12.1506C15.6516 11.6629 16.8508 11.8273 17.6868 12.567C17.731 12.6054 17.767 12.6491 17.8087 12.6897C17.8927 12.7707 17.9717 12.8566 18.0453 12.9471C18.087 12.9993 18.1218 13.0556 18.1578 13.1107C18.2176 13.1975 18.2728 13.2875 18.3225 13.3805C18.3546 13.4412 18.3826 13.5029 18.41 13.5661C18.4512 13.6602 18.4869 13.7568 18.5173 13.8548C18.5377 13.9207 18.5569 13.9855 18.5736 14.0521C18.5967 14.1545 18.614 14.2577 18.6255 14.362C18.6332 14.4271 18.6428 14.4913 18.6461 14.5569C18.6502 14.6713 18.6472 14.7858 18.6373 14.9C18.6332 14.956 18.6337 15.0122 18.6266 15.0685C18.6038 15.2326 18.5659 15.3946 18.5141 15.5518C18.5141 15.5603 18.5113 15.5683 18.5086 15.5765L20.0179 16.448L22.8284 11.5756L7.25405 2.58191L4.44351 7.45369L13.7419 12.8212C13.8498 12.7023 13.9681 12.5931 14.0949 12.4945Z" fill="#E74040"/>
<path d="M1.65436 7.78827L6.15122 0L7.12421 0.561834L2.62734 8.3501L1.65436 7.78827Z" fill="#E74040"/>
<path d="M26.9882 17.8722L27.5506 16.8981L31.4447 19.1465L30.8824 20.1206L26.9882 17.8722Z" fill="#E74040"/>
<path d="M21.5584 16.0341L23.2447 13.114L27.1389 15.3627L25.4525 18.2828L21.5584 16.0341Z" fill="#E74040"/>
<path d="M17.17 15.9646C17.1442 15.9171 17.1115 15.8738 17.0728 15.8359C17.1615 15.7439 17.2391 15.6418 17.3039 15.5318C17.768 14.7249 17.4938 13.6948 16.6899 13.2254C16.5744 13.1607 16.4514 13.1099 16.3241 13.0737C16.2865 13.0624 16.2478 13.0555 16.2118 13.047C16.1193 13.027 16.0252 13.0146 15.9308 13.01C15.8901 13.01 15.8503 13.005 15.8097 13.0061C15.6755 13.0092 15.5421 13.0281 15.4123 13.0624C14.8395 13.2131 14.3885 13.6553 14.2269 14.2253C14.0652 14.7954 14.2167 15.4083 14.6254 15.8375C14.587 15.8749 14.5546 15.9177 14.5288 15.9646L6.91205 31.1863C6.77344 31.4643 6.88625 31.8019 7.16401 31.9408C7.44177 32.0794 7.77964 31.9669 7.91824 31.6888L15.2847 16.9505V31.4377C15.2847 31.7481 15.5363 31.9998 15.8468 31.9998C16.1572 31.9998 16.4089 31.7481 16.4089 31.4377V16.9549L23.7725 31.6888C23.9114 31.9669 24.249 32.0794 24.5271 31.9408C24.8048 31.8019 24.9176 31.4643 24.7787 31.1863L17.17 15.9646Z" fill="#E74040"/>
</g>
</g>
<defs>
<clipPath id="clip0_0_103">
<rect width="32" height="32" fill="white" transform="translate(0.5)"/>
</clipPath>
<clipPath id="clip1_0_103">
<rect width="32" height="32" fill="white" transform="translate(0.5)"/>
</clipPath>
</defs>
</svg>
