<svg width="32" height="32" viewBox="0 0 32 32" fill="none" xmlns="http://www.w3.org/2000/svg">
<g clip-path="url(#clip0_0_130)">
<g clip-path="url(#clip1_0_130)">
<g clip-path="url(#clip2_0_130)">
<path d="M11.2753 21.6057H20.7246V26.3304H11.2753V21.6057Z" fill="#E74040"/>
<path d="M16 3.65198C10.2686 3.65198 5.60571 8.3149 5.60571 14.0462V28.2202C5.60571 30.3044 7.3013 31.9999 9.38544 31.9999H22.6145C24.6986 31.9999 26.3942 30.3044 26.3942 28.2202V14.0462C26.3942 8.31484 21.7314 3.65198 16 3.65198ZM10.3304 12.1564H21.6696V14.0462H19.7797V15.9361H17.8898V14.0462H10.3304V12.1564ZM22.6145 28.2202H9.38544V19.7158H22.6145V28.2202Z" fill="#E74040"/>
<path d="M25.7047 1.83877L20.3415 0L19.5571 2.288C21.4523 2.86245 23.155 3.88336 24.5427 5.22799L25.7047 1.83877Z" fill="#E74040"/>
<path d="M12.4429 2.288L11.6584 0L6.29529 1.83877L7.4573 5.22799C8.84497 3.88342 10.5477 2.86245 12.4429 2.288Z" fill="#E74040"/>
</g>
</g>
</g>
<defs>
<clipPath id="clip0_0_130">
<rect width="32" height="32" fill="white"/>
</clipPath>
<clipPath id="clip1_0_130">
<rect width="32" height="32" fill="white"/>
</clipPath>
<clipPath id="clip2_0_130">
<rect width="20.7885" height="32" fill="white" transform="translate(5.60571)"/>
</clipPath>
</defs>
</svg>
