<svg width="70" height="76" viewBox="0 0 70 76" fill="none" xmlns="http://www.w3.org/2000/svg">
<path d="M0 10C0 4.47715 4.47715 0 10 0H60C65.5229 0 70 4.47715 70 10V66C70 71.5229 65.5229 76 60 76H10C4.47715 76 0 71.5229 0 66V10Z" fill="#B6D7FF"/>
<g clip-path="url(#clip0_0_129)">
<g clip-path="url(#clip1_0_129)">
<g clip-path="url(#clip2_0_129)">
<path d="M30.2753 43.6057H39.7246V48.3304H30.2753V43.6057Z" fill="#E74040"/>
<path d="M35 25.652C29.2686 25.652 24.6057 30.3149 24.6057 36.0462V50.2202C24.6057 52.3044 26.3013 53.9999 28.3854 53.9999H41.6145C43.6986 53.9999 45.3942 52.3044 45.3942 50.2202V36.0462C45.3942 30.3148 40.7314 25.652 35 25.652ZM29.3304 34.1564H40.6696V36.0462H38.7797V37.9361H36.8898V36.0462H29.3304V34.1564ZM41.6145 50.2202H28.3854V41.7158H41.6145V50.2202Z" fill="#E74040"/>
<path d="M44.7047 23.8388L39.3415 22L38.5571 24.288C40.4523 24.8625 42.155 25.8834 43.5427 27.228L44.7047 23.8388Z" fill="#E74040"/>
<path d="M31.4429 24.288L30.6584 22L25.2953 23.8388L26.4573 27.228C27.845 25.8834 29.5477 24.8625 31.4429 24.288Z" fill="#E74040"/>
</g>
</g>
</g>
<defs>
<clipPath id="clip0_0_129">
<rect width="32" height="32" fill="white" transform="translate(19 22)"/>
</clipPath>
<clipPath id="clip1_0_129">
<rect width="32" height="32" fill="white" transform="translate(19 22)"/>
</clipPath>
<clipPath id="clip2_0_129">
<rect width="20.7885" height="32" fill="white" transform="translate(24.6057 22)"/>
</clipPath>
</defs>
</svg>
