<svg width="32" height="32" viewBox="0 0 32 32" fill="none" xmlns="http://www.w3.org/2000/svg">
<g clip-path="url(#clip0_0_93)">
<path d="M1.7143 20.0001C1.7143 20.3156 1.97016 20.5715 2.28573 20.5715H29.7143C30.0299 20.5715 30.2857 20.3156 30.2857 20.0001V2.28577H1.7143V20.0001Z" fill="#E74040"/>
<path d="M31.4286 0H0.571429C0.255859 0 0 0.255859 0 0.571429C0 0.886998 0.255859 1.14286 0.571429 1.14286H31.4286C31.7441 1.14286 32 0.886998 32 0.571429C32 0.255859 31.7441 0 31.4286 0Z" fill="#E74040"/>
<path d="M20.5714 29.7142H16.5714V22.8571H17.1429C17.4584 22.8571 17.7143 22.6012 17.7143 22.2857V21.7142H14.2857V22.2857C14.2857 22.6012 14.5416 22.8571 14.8572 22.8571H15.4286V29.7142H11.4286C10.4819 29.7142 9.7143 30.4818 9.7143 31.4285V32H22.2857V31.4285C22.2857 30.4818 21.5182 29.7142 20.5714 29.7142Z" fill="#E74040"/>
</g>
<defs>
<clipPath id="clip0_0_93">
<rect width="32" height="32" fill="white"/>
</clipPath>
</defs>
</svg>
