<svg width="71" height="76" viewBox="0 0 71 76" fill="none" xmlns="http://www.w3.org/2000/svg">
<path d="M0.5 10C0.5 4.47715 4.97715 0 10.5 0H60.5C66.0229 0 70.5 4.47715 70.5 10V66C70.5 71.5229 66.0229 76 60.5 76H10.5C4.97715 76 0.5 71.5229 0.5 66V10Z" fill="#DDEEFE"/>
<g clip-path="url(#clip0_0_102)">
<g clip-path="url(#clip1_0_102)">
<path d="M33.0949 34.4945C33.1325 34.4649 33.1717 34.4383 33.2107 34.4103C33.3098 34.3389 33.4132 34.2744 33.5208 34.2171C33.5631 34.194 33.604 34.171 33.6474 34.1506C34.6516 33.6629 35.8508 33.8273 36.6868 34.567C36.731 34.6054 36.767 34.6491 36.8087 34.6897C36.8927 34.7707 36.9717 34.8566 37.0453 34.9471C37.087 34.9993 37.1218 35.0556 37.1578 35.1107C37.2176 35.1975 37.2728 35.2875 37.3225 35.3805C37.3546 35.4412 37.3826 35.5029 37.41 35.5661C37.4512 35.6602 37.4869 35.7568 37.5173 35.8548C37.5377 35.9207 37.5569 35.9855 37.5736 36.0521C37.5967 36.1545 37.614 36.2577 37.6255 36.362C37.6332 36.4271 37.6428 36.4913 37.6461 36.5569C37.6502 36.6713 37.6472 36.7858 37.6373 36.9C37.6332 36.956 37.6337 37.0122 37.6266 37.0685C37.6038 37.2326 37.5659 37.3946 37.5141 37.5518C37.5141 37.5603 37.5113 37.5683 37.5086 37.5765L39.0179 38.448L41.8284 33.5756L26.2541 24.5819L23.4435 29.4537L32.7419 34.8212C32.8498 34.7023 32.9681 34.5931 33.0949 34.4945Z" fill="#E74040"/>
<path d="M20.6544 29.7883L25.1512 22L26.1242 22.5618L21.6273 30.3501L20.6544 29.7883Z" fill="#E74040"/>
<path d="M45.9882 39.8722L46.5506 38.8981L50.4447 41.1465L49.8824 42.1206L45.9882 39.8722Z" fill="#E74040"/>
<path d="M40.5584 38.0341L42.2447 35.114L46.1389 37.3627L44.4525 40.2828L40.5584 38.0341Z" fill="#E74040"/>
<path d="M36.17 37.9646C36.1442 37.9171 36.1115 37.8738 36.0728 37.8359C36.1615 37.7439 36.2391 37.6418 36.3039 37.5318C36.768 36.7249 36.4938 35.6948 35.6899 35.2254C35.5744 35.1607 35.4514 35.1099 35.3241 35.0737C35.2865 35.0624 35.2478 35.0555 35.2118 35.047C35.1193 35.027 35.0252 35.0146 34.9308 35.01C34.8901 35.01 34.8503 35.005 34.8097 35.0061C34.6755 35.0092 34.5421 35.0281 34.4123 35.0624C33.8395 35.2131 33.3885 35.6553 33.2269 36.2253C33.0652 36.7954 33.2167 37.4083 33.6254 37.8375C33.587 37.8749 33.5546 37.9177 33.5288 37.9646L25.912 53.1863C25.7734 53.4643 25.8862 53.8019 26.164 53.9408C26.4418 54.0794 26.7796 53.9669 26.9182 53.6888L34.2847 38.9505V53.4377C34.2847 53.7481 34.5363 53.9998 34.8468 53.9998C35.1572 53.9998 35.4089 53.7481 35.4089 53.4377V38.9549L42.7725 53.6888C42.9114 53.9669 43.249 54.0794 43.5271 53.9408C43.8048 53.8019 43.9176 53.4643 43.7787 53.1863L36.17 37.9646Z" fill="#E74040"/>
</g>
</g>
<defs>
<clipPath id="clip0_0_102">
<rect width="32" height="32" fill="white" transform="translate(19.5 22)"/>
</clipPath>
<clipPath id="clip1_0_102">
<rect width="32" height="32" fill="white" transform="translate(19.5 22)"/>
</clipPath>
</defs>
</svg>
