<svg width="70" height="76" viewBox="0 0 70 76" fill="none" xmlns="http://www.w3.org/2000/svg">
<path d="M0 10C0 4.47715 4.47715 0 10 0H60C65.5229 0 70 4.47715 70 10V66C70 71.5229 65.5229 76 60 76H10C4.47715 76 0 71.5229 0 66V10Z" fill="white"/>
<g clip-path="url(#clip0_0_115)">
<g clip-path="url(#clip1_0_115)">
<g clip-path="url(#clip2_0_115)">
<path d="M51 43.874C51 42.6533 50.2139 41.6225 49.125 41.2342V31.522L51 30.749L35 24.3293L19 30.749L35 37.1687L47.25 32.2749V41.2342C46.1611 41.6225 45.375 42.6533 45.375 43.874C45.375 44.9915 46.035 45.9507 46.9813 46.404L45.4236 51.0774L47.2015 51.6706L48.1875 48.7125L49.1735 51.6706L50.9514 51.0774L49.3937 46.404C50.34 45.9508 51 44.9915 51 43.874Z" fill="#E74040"/>
</g>
</g>
<g clip-path="url(#clip3_0_115)">
<g clip-path="url(#clip4_0_115)">
<path d="M35 39.1893L26.5625 35.8013V38.249C26.5625 40.9215 30.1898 42.9365 35 42.9365C39.8102 42.9365 43.4375 40.9215 43.4375 38.249V35.8013L35 39.1893Z" fill="#E74040"/>
</g>
</g>
</g>
<defs>
<clipPath id="clip0_0_115">
<rect width="32" height="32" fill="white" transform="translate(19 22)"/>
</clipPath>
<clipPath id="clip1_0_115">
<rect width="32" height="27.3413" fill="white" transform="translate(19 24.3293)"/>
</clipPath>
<clipPath id="clip2_0_115">
<rect width="32" height="27.3413" fill="white" transform="translate(19 24.3293)"/>
</clipPath>
<clipPath id="clip3_0_115">
<rect width="16.875" height="7.13525" fill="white" transform="translate(26.5625 35.8013)"/>
</clipPath>
<clipPath id="clip4_0_115">
<rect width="16.875" height="7.13525" fill="white" transform="translate(26.5625 35.8013)"/>
</clipPath>
</defs>
</svg>
